<svg width="19" height="23" viewBox="0 0 19 23" fill="none" xmlns="http://www.w3.org/2000/svg">
<path d="M2.82063 -24.8382C2.18957 -24.8143 1.69429 -24.5427 1.58244 -24.1593C-0.247186 -15.7479 -0.0239126 -6.5296 2.31624 1.85001C3.49829 6.35534 5.42325 10.4533 7.5719 13.7844C10.2398 17.4751 13.5148 20.5107 17.2611 22.6437C17.7803 23.0031 18.2756 22.7316 18.6351 22.2123C18.9945 21.6931 18.723 21.1979 18.2038 20.8384C14.729 19.2007 11.8374 16.2769 9.30536 12.8339C7.29249 9.75044 5.50332 5.9001 4.45706 1.6424C2.25269 -6.48957 1.91757 -15.3244 3.88299 -23.4882C3.72326 -24.3669 3.20405 -24.7263 2.82063 -24.8382Z" fill="#DCF4BA"/>
</svg>
