<svg width="16" height="31" viewBox="0 0 16 31" fill="none" xmlns="http://www.w3.org/2000/svg">
<path d="M14.7547 0.29949C14.5032 0.11712 14.5032 0.117119 14.2863 0.151668C11.6487 0.349329 9.03608 2.09996 7.17783 4.39771C5.57105 6.87782 4.71867 9.90505 5.35017 12.4735C5.48836 13.3412 5.84347 14.1743 6.16404 14.7905C6.4846 15.4067 6.5537 15.8406 6.87426 16.4568C7.43666 18.5914 7.38285 21.0466 6.20991 23.4576C5.25388 25.8341 3.36109 27.9149 1.07863 28.9457C0.679344 29.2317 0.531523 29.7001 0.78299 29.8825C1.069 30.2818 1.53739 30.4296 1.71976 30.1781C4.18458 28.8959 6.25975 26.5636 7.39815 23.9356C8.53654 21.3077 8.95509 18.3496 8.10667 15.8156C8.00303 15.1649 7.68246 14.5487 7.3619 13.9325C7.04134 13.3163 6.68623 12.4831 6.58258 11.8324C6.02018 9.69776 6.72474 7.13892 8.14915 4.91027C9.60811 2.89854 11.8215 1.43392 14.2421 1.27081C14.676 1.20171 14.8583 0.950245 15.0061 0.481861C15.0407 0.698779 14.7892 0.516408 14.7547 0.29949Z" fill="#4EEDD0"/>
</svg>
