<svg width="24" height="39" viewBox="0 0 24 39" fill="none" xmlns="http://www.w3.org/2000/svg">
<path d="M0.821438 -35.2998C1.4681 -35.6369 1.4681 -35.6369 1.95998 -35.4821C8.01731 -34.1167 13.4831 -29.1533 17.0089 -23.1786C19.8881 -16.8668 20.8273 -9.54376 18.4781 -3.79598C17.859 -1.82846 16.748 -0.0157114 15.7918 1.30515C14.8356 2.62602 14.526 3.60977 13.5698 4.93064C11.5302 9.69466 10.8114 15.4149 12.7068 21.4171C14.1103 27.2646 17.7909 32.7474 22.7373 35.9255C23.5662 36.727 23.7486 37.8655 23.1019 38.2026C22.3005 39.0316 21.1619 39.2139 20.8248 38.5673C15.5414 34.7424 11.5237 28.613 9.78307 22.1189C8.04244 15.6248 8.08701 8.61123 10.9281 3.01823C11.3924 1.54259 12.3486 0.221726 13.3048 -1.09914C14.261 -2.42 15.372 -4.23275 15.8363 -5.70838C17.876 -10.4724 17.1191 -16.657 14.5771 -22.3221C11.8802 -27.4953 7.24344 -31.6573 1.67798 -32.8679C0.694221 -33.1775 0.35711 -33.8241 0.174782 -34.9627C0.0200063 -34.4708 0.666662 -34.8079 0.821438 -35.2998Z" fill="#4ECFED"/>
</svg>
