<svg width="20" height="37" viewBox="0 0 20 37" fill="none" xmlns="http://www.w3.org/2000/svg">
<path d="M0.416763 -3.50528C0.112595 -3.00713 0.306576 -2.20481 0.804722 -1.90064C4.98387 1.33501 7.75237 5.76093 9.4144 10.879C7.61579 10.4646 5.70699 11.3507 4.29635 12.541C2.58153 14.2294 2.36115 16.8303 4.04957 18.5452C5.43382 20.7581 8.03474 20.9785 10.2477 19.5942C11.6584 18.404 12.5709 16.9095 12.4871 14.8068C12.9852 15.1109 13.1792 15.9132 14.1755 16.5216C17.4421 21.2517 18.994 27.6702 14.956 32.0433C12.937 34.2299 9.22962 34.7016 6.43472 33.6789C5.93657 33.3748 5.13426 33.5687 4.83009 34.0669C4.52592 34.565 4.7199 35.3673 5.21805 35.6715C9.00924 37.3025 14.0171 36.941 16.6444 33.7581C20.3782 29.8831 21.2333 22.8827 16.3884 15.1373C15.6963 14.0308 14.0079 12.316 12.5135 11.4035C11.4598 5.28918 7.501 -0.547387 2.82371 -4.08721C1.52325 -4.19739 0.720929 -4.00342 0.416763 -3.50528ZM8.06114 17.5753C7.25882 17.7692 6.26254 17.1609 5.76439 16.8567C5.07226 15.7503 5.18246 14.4498 5.98477 14.2558C6.59311 13.2595 8.69588 13.1757 9.69217 13.7841C9.88615 14.5864 9.47179 16.385 8.06114 17.5753Z" fill="#C8F38D"/>
</svg>
