<svg width="30" height="43" viewBox="0 0 30 43" fill="none" xmlns="http://www.w3.org/2000/svg">
<path d="M28.4033 -5.35257C29.0795 -5.18639 29.5539 -4.78296 29.5895 -4.34401C29.6948 5.14671 27.4037 15.0523 23.013 23.5814C20.7346 28.1841 17.7444 32.1816 14.6832 35.3012C10.9813 38.6936 6.76945 41.2436 2.24929 42.714C1.60862 42.9868 1.13415 42.5834 0.861389 41.9427C0.588624 41.302 0.992047 40.8276 1.63271 40.5548C5.74945 39.5589 9.52238 37.0444 13.0225 33.8892C15.882 31.0069 18.6705 27.2466 20.7472 22.8812C24.9362 14.5893 27.2628 5.12263 26.9558 -4.13086C27.3237 -5.04428 27.9643 -5.31705 28.4033 -5.35257Z" fill="#DCF4BA"/>
</svg>
