<svg width="37" height="37" viewBox="0 0 37 37" fill="none" xmlns="http://www.w3.org/2000/svg">
<path fill-rule="evenodd" clip-rule="evenodd" d="M36.5 18.5C36.5 28.4411 28.4411 36.5 18.5 36.5C8.55888 36.5 0.5 28.4411 0.5 18.5C0.5 8.55888 8.55888 0.5 18.5 0.5C28.4411 0.5 36.5 8.55888 36.5 18.5ZM23 11.75C23 14.2353 20.9853 16.25 18.5 16.25C16.0147 16.25 14 14.2353 14 11.75C14 9.26472 16.0147 7.25 18.5 7.25C20.9853 7.25 23 9.26472 23 11.75ZM18.4998 20.75C13.9604 20.75 10.0489 23.4386 8.2709 27.3104C10.7466 30.1821 14.411 32 18.5 32C22.5889 32 26.2532 30.1822 28.7289 27.3105C26.9509 23.4387 23.0394 20.75 18.4998 20.75Z" fill="#757575"/>
</svg>
